<?xml version="1.0" encoding="UTF-8"?>
<svg id="text_outlines" xmlns="http://www.w3.org/2000/svg" width="685.695" height="405.128" viewBox="0 0 685.695 405.128">
  <defs>
    <style>
      .cls-1 {
        fill: #396289;
      }

      .cls-1, .cls-2, .cls-3, .cls-4, .cls-5, .cls-6, .cls-7 {
        stroke: #1f1e21;
      }

      .cls-1, .cls-4, .cls-6, .cls-7 {
        stroke-width: .235px;
      }

      .cls-2 {
        stroke-width: .239px;
      }

      .cls-2, .cls-3, .cls-8 {
        fill: none;
      }

      .cls-3 {
        stroke-width: 1.273px;
      }

      .cls-4 {
        fill: #005237;
      }

      .cls-9 {
        fill: #a1b8a7;
        stroke: #005237;
      }

      .cls-9, .cls-10, .cls-11 {
        stroke-width: .318px;
      }

      .cls-8 {
        stroke-width: .115px;
      }

      .cls-8, .cls-12 {
        stroke: #fff;
      }

      .cls-12 {
        font-size: 4.598px;
        stroke-miterlimit: 10;
        stroke-width: .08px;
      }

      .cls-12, .cls-13, .cls-14 {
        font-family: ArialMT, Arial;
      }

      .cls-12, .cls-15, .cls-16, .cls-17 {
        fill: #fff;
      }

      .cls-13 {
        font-size: 3.982px;
      }

      .cls-13, .cls-14, .cls-5 {
        fill: #1f1e21;
      }

      .cls-14 {
        font-size: 3.982px;
      }

      .cls-10 {
        fill: #bed1ea;
        stroke: #1e85c5;
      }

      .cls-11 {
        fill: #c6c5e0;
        stroke: #696eaa;
      }

      .cls-5 {
        stroke-width: .328px;
      }

      .cls-18 {
        letter-spacing: 0em;
      }

      .cls-19 {
        letter-spacing: 0em;
      }

      .cls-20 {
        letter-spacing: 0em;
      }

      .cls-6 {
        fill: #1e85c5;
      }

      .cls-16 {
        font-size: 4.778px;
      }

      .cls-16, .cls-21 {
        font-family: Arial-BoldMT, Arial;
        font-weight: 700;
      }

      .cls-22 {
        letter-spacing: 0em;
      }

      .cls-23 {
        font-family: Arial-ItalicMT, Arial;
        font-style: italic;
      }

      .cls-24 {
        fill: #bac0d1;
        stroke: #396289;
        stroke-width: .286px;
      }

      .cls-25 {
        letter-spacing: -.111em;
      }

      .cls-26 {
        letter-spacing: -.111em;
      }

      .cls-27 {
        letter-spacing: -.018em;
      }

      .cls-28 {
        letter-spacing: -.018em;
      }

      .cls-29 {
        letter-spacing: -.018em;
      }

      .cls-30 {
        letter-spacing: -.055em;
      }

      .cls-31 {
        letter-spacing: -.037em;
      }

      .cls-7 {
        fill: #465398;
      }

      .cls-17 {
        font-size: 3.941px;
      }
    </style>
  </defs>
  <rect class="cls-15" width="685.695" height="405.128"/>
  <g>
    <path class="cls-2" d="M519.269,249.692c-1.953,0-3.537-1.584-3.537-3.537v-21.833c0-1.953,1.584-3.537,3.537-3.537"/>
    <path class="cls-2" d="M515.732,246.155v-12.252c0-1.953,1.584-3.537,3.537-3.537"/>
    <path class="cls-2" d="M519.269,240.017c-1.953,0-3.537-1.584-3.537-3.537"/>
    <g>
      <path class="cls-4" d="M373.543,252.032h73.25c.536,0,.971.426.971.951v6.649c0,.525-.435.951-.971.951h-73.25"/>
      <path class="cls-4" d="M373.573,252.032h-7.196c-.525,0-.951.426-.951.951v6.649c0,.525.426.951.951.951h7.196"/>
      <line class="cls-8" x1="373.559" y1="252.492" x2="373.559" y2="260.124"/>
      <text class="cls-12" transform="translate(368.249 257.447)"><tspan x="0" y="0">4</tspan></text>
      <text class="cls-16" transform="translate(376.15 257.447)"><tspan x="0" y="0">Footprinting countermeasures</tspan></text>
    </g>
    <path class="cls-9" d="M576.701,224.365c1.953,0,3.537-1.584,3.537-3.537s-1.584-3.537-3.537-3.537h-53.884c-1.953,0-3.537,1.584-3.537,3.537,0,1.953,1.584,3.537,3.537,3.537h53.884Z"/>
    <text class="cls-13" transform="translate(522.12 221.96)"><tspan x="0" y="0">Restrict the employee</tspan><tspan class="cls-28" x="38.509" y="0">’</tspan><tspan class="cls-19" x="39.322" y="0">s access</tspan></text>
    <path class="cls-9" d="M605.133,253.225c1.953,0,3.537-1.584,3.537-3.537s-1.584-3.537-3.537-3.537h-82.316c-1.953,0-3.537,1.584-3.537,3.537,0,1.953,1.584,3.537,3.537,3.537h82.316Z"/>
    <text class="cls-13" transform="translate(522.121 250.809)"><tspan x="0" y="0">Do not reveal critical organisational information</tspan></text>
    <line class="cls-2" x1="515.742" y1="234.933" x2="507.254" y2="234.933"/>
    <path class="cls-2" d="M455.681,277.729c-1.953,0-3.537-1.584-3.537-3.537v-35.722c0-1.953,1.584-3.537,3.537-3.537"/>
    <path class="cls-9" d="M504.596,238.418c1.953,0,3.537-1.584,3.537-3.537s-1.584-3.537-3.537-3.537l-45.378.105c-1.953,0-3.537,1.584-3.537,3.537s1.584,3.537,3.537,3.537l45.378-.105Z"/>
    <text class="cls-13" transform="translate(458.558 235.987)"><tspan x="0" y="0">General countermeasures</tspan></text>
    <path class="cls-9" d="M507.776,281.289c1.976,0,3.577-1.584,3.577-3.537,0-1.953-1.602-3.537-3.577-3.537h-48.518c-1.976,0-3.577,1.584-3.577,3.537,0,1.953,1.602,3.537,3.577,3.537h48.518Z"/>
    <text class="cls-13" transform="translate(459.845 278.753)"><tspan class="cls-25" x="0" y="0">T</tspan><tspan x="1.991" y="0">echnical countermeasures</tspan></text>
    <line class="cls-2" x1="452.144" y1="256.308" x2="447.765" y2="256.308"/>
    <path class="cls-2" d="M524.561,288.189c-1.953,0-3.537-1.584-3.537-3.537v-13.571c0-1.953,1.584-3.537,3.537-3.537"/>
    <line class="cls-2" x1="524.561" y1="277.803" x2="511.353" y2="277.803"/>
    <path class="cls-9" d="M593.649,271.082c1.953,0,3.537-1.584,3.537-3.537s-1.584-3.537-3.537-3.537h-65.551c-1.953,0-3.537,1.584-3.537,3.537s1.584,3.537,3.537,3.537h65.551Z"/>
    <text class="cls-13" transform="translate(527.805 268.545)"><tspan x="0" y="0">Develop and enforce security policies</tspan></text>
    <path class="cls-9" d="M608.97,281.34c1.953,0,3.537-1.584,3.537-3.537s-1.584-3.537-3.537-3.537h-80.872c-1.953,0-3.537,1.584-3.537,3.537,0,1.953,1.584,3.537,3.537,3.537h80.872Z"/>
    <text class="cls-13" transform="translate(527.909 278.757)"><tspan x="0" y="0">Use split DNS and restrict DNS zone transfers</tspan></text>
    <path class="cls-9" d="M570.41,291.496c1.953,0,3.537-1.584,3.537-3.537,0-1.953-1.584-3.537-3.537-3.537h-42.312c-1.953,0-3.537,1.584-3.537,3.537,0,1.953,1.584,3.537,3.537,3.537h42.312Z"/>
    <text class="cls-13" transform="translate(527.617 288.914)"><tspan x="0" y="0">Disable directory listings</tspan></text>
    <path class="cls-9" d="M612.948,233.914c1.953,0,3.537-1.584,3.537-3.537s-1.584-3.537-3.537-3.537h-90.105c-1.953,0-3.537,1.584-3.537,3.537s1.584,3.537,3.537,3.537h90.105Z"/>
    <text class="cls-13" transform="translate(522.12 231.544)"><tspan x="0" y="0">Configure web servers to avoid information leakage</tspan></text>
    <path class="cls-9" d="M574.872,243.527c1.953,0,3.537-1.584,3.537-3.537,0-1.953-1.584-3.537-3.537-3.537h-52.029c-1.953,0-3.537,1.584-3.537,3.537s1.584,3.537,3.537,3.537h52.029Z"/>
    <text class="cls-13" transform="translate(522.12 241.11)"><tspan x="0" y="0">Use pseudonyms while online</tspan></text>
  </g>
  <g>
    <line class="cls-2" x1="436.506" y1="88.018" x2="426.509" y2="88.018"/>
    <path class="cls-2" d="M436.519,124.493c-1.953,0-3.537-1.584-3.537-3.537V55.308c0-1.953,1.584-3.537,3.537-3.537"/>
    <path class="cls-2" d="M436.519,115.514c-1.953,0-3.537-1.584-3.537-3.537"/>
    <path class="cls-2" d="M436.519,106.535c-1.953,0-3.537-1.584-3.537-3.537"/>
    <path class="cls-2" d="M436.519,97.39c-1.953,0-3.537-1.584-3.537-3.537"/>
    <path class="cls-2" d="M432.982,64.37c0-1.953,1.584-3.537,3.537-3.537"/>
    <path class="cls-2" d="M432.982,73.432c0-1.953,1.584-3.537,3.537-3.537"/>
    <path class="cls-2" d="M432.982,82.494c0-1.953,1.584-3.537,3.537-3.537"/>
    <g>
      <path class="cls-6" d="M373.543,84.016h52.015c.525,0,.951.426.951.951v6.649c0,.525-.426.951-.951.951h-52.015"/>
      <path class="cls-6" d="M373.573,84.016h-7.196c-.525,0-.951.426-.951.951v6.649c0,.525.426.951.951.951h7.196"/>
      <line class="cls-8" x1="373.559" y1="84.476" x2="373.559" y2="92.108"/>
      <text class="cls-12" transform="translate(368.248 89.432)"><tspan x="0" y="0">2</tspan></text>
      <text class="cls-16" transform="translate(376.149 89.432)"><tspan x="0" y="0">Footprint techniques</tspan></text>
    </g>
    <path class="cls-10" d="M502.957,55.435c1.998,0,3.617-1.584,3.617-3.537,0-1.953-1.619-3.537-3.617-3.537h-62.809c-1.998,0-3.617,1.584-3.617,3.537,0,1.953,1.619,3.537,3.617,3.537h62.809Z"/>
    <text class="cls-13" transform="translate(439.619 52.899)"><tspan x="0" y="0">Footprinting through search engines</tspan></text>
    <path class="cls-10" d="M499.046,64.429c1.998,0,3.617-1.584,3.617-3.537,0-1.953-1.619-3.537-3.617-3.537h-58.898c-1.998,0-3.617,1.584-3.617,3.537,0,1.953,1.619,3.537,3.617,3.537h58.898Z"/>
    <text class="cls-13" transform="translate(439.619 61.894)"><tspan x="0" y="0">Footprinting through web services</tspan></text>
    <path class="cls-10" d="M515.733,73.476c1.998,0,3.617-1.584,3.617-3.537,0-1.953-1.619-3.537-3.617-3.537h-75.585c-1.998,0-3.617,1.584-3.617,3.537,0,1.953,1.619,3.537,3.617,3.537h75.585Z"/>
    <text class="cls-13" transform="translate(439.619 70.941)"><tspan x="0" y="0">Footprinting through social networking sites</tspan></text>
    <path class="cls-10" d="M507.884,100.848c1.998,0,3.617-1.584,3.617-3.537,0-1.953-1.619-3.537-3.617-3.537h-67.736c-1.998,0-3.617,1.584-3.617,3.537,0,1.953,1.619,3.537,3.617,3.537h67.736Z"/>
    <text class="cls-13" transform="translate(439.619 98.313)"><tspan x="0" y="0">Footprinting through social engineering</tspan></text>
    <path class="cls-10" d="M476.847,109.911c1.998,0,3.617-1.584,3.617-3.537,0-1.953-1.619-3.537-3.617-3.537h-36.698c-1.998,0-3.617,1.584-3.617,3.537,0,1.953,1.619,3.537,3.617,3.537h36.698Z"/>
    <text class="cls-13" transform="translate(439.619 107.375)"><tspan x="0" y="0">Netwoork footprinting</tspan></text>
    <path class="cls-10" d="M469.753,118.974c1.998,0,3.617-1.584,3.617-3.537,0-1.953-1.619-3.537-3.617-3.537h-29.604c-1.998,0-3.617,1.584-3.617,3.537,0,1.953,1.619,3.537,3.617,3.537h29.604Z"/>
    <text class="cls-13" transform="translate(439.619 116.438)"><tspan x="0" y="0">Email footprinting</tspan></text>
    <path class="cls-10" d="M474.081,82.539c1.998,0,3.617-1.584,3.617-3.537,0-1.953-1.619-3.537-3.617-3.537h-33.942c-1.998,0-3.617,1.584-3.617,3.537,0,1.953,1.619,3.537,3.617,3.537h33.942Z"/>
    <text class="cls-13" transform="translate(439.61 80.003)"><tspan class="cls-29" x="0" y="0">W</tspan><tspan x="3.687" y="0">ebsite footprinting</tspan></text>
    <path class="cls-10" d="M470.972,91.674c1.998,0,3.617-1.584,3.617-3.537s-1.619-3.537-3.617-3.537h-30.833c-1.998,0-3.617,1.584-3.617,3.537s1.619,3.537,3.617,3.537h30.833Z"/>
    <text class="cls-13" transform="translate(439.61 89.138)"><tspan x="0" y="0">Whois footprinting</tspan></text>
    <path class="cls-10" d="M468.423,128.03c1.998,0,3.617-1.584,3.617-3.537s-1.619-3.537-3.617-3.537h-28.283c-1.998,0-3.617,1.584-3.617,3.537s1.619,3.537,3.617,3.537h28.283Z"/>
    <text class="cls-13" transform="translate(439.61 125.493)"><tspan x="0" y="0">DNS footprinting</tspan></text>
  </g>
  <line class="cls-2" x1="89.504" y1="87.912" x2="99.022" y2="87.912"/>
  <path class="cls-2" d="M89.388,77.838c1.953,0,3.537,1.584,3.537,3.537v2.655s0,10.419,0,10.419c0,1.953-1.584,3.537-3.537,3.537"/>
  <line class="cls-2" x1="100.984" y1="25.962" x2="107.149" y2="25.962"/>
  <line class="cls-2" x1="72.516" y1="51.716" x2="82.385" y2="51.716"/>
  <g>
    <path class="cls-1" d="M169.106,47.527h55.12c.525,0,.951.426.951.951v6.649c0,.525-.426.951-.951.951h-55.12"/>
    <path class="cls-1" d="M169.135,47.527h-7.196c-.525,0-.951.426-.951.951v6.649c0,.525.426.951.951.951h7.196"/>
    <line class="cls-8" x1="169.121" y1="47.987" x2="169.121" y2="55.619"/>
    <text class="cls-12" transform="translate(163.811 52.942)"><tspan x="0" y="0">1</tspan></text>
    <text class="cls-16" transform="translate(171.713 52.942)"><tspan x="0" y="0">Footprinting concepts</tspan></text>
  </g>
  <path class="cls-24" d="M110.686,29.469c-1.953,0-3.537-1.584-3.537-3.537s1.584-3.537,3.537-3.537h34.929c1.953,0,3.537,1.584,3.537,3.537s-1.584,3.537-3.537,3.537h-34.929Z"/>
  <path class="cls-24" d="M85.922,55.34c-1.953,0-3.537-1.584-3.537-3.537,0-1.953,1.584-3.537,3.537-3.537h59.861c1.953,0,3.537,1.584,3.537,3.537s-1.584,3.537-3.537,3.537h-59.861Z"/>
  <path class="cls-24" d="M102.594,91.835c-1.953,0-3.537-1.584-3.537-3.537,0-1.953,1.584-3.537,3.537-3.537h43.043c1.953,0,3.537,1.584,3.537,3.537,0,1.953-1.584,3.537-3.537,3.537h-43.043Z"/>
  <text class="cls-13" transform="translate(110.131 26.899)"><tspan class="cls-30" x="0" y="0">T</tspan><tspan class="cls-18" x="2.213" y="0">ypes of footprinting</tspan></text>
  <text class="cls-13" transform="translate(84.894 52.758)"><tspan x="0" y="0">Information obtained in footprinting</tspan></text>
  <text class="cls-13" transform="translate(102.301 89.299)"><tspan x="0" y="0">Objectives of footprinting</tspan></text>
  <line class="cls-2" x1="149.32" y1="51.803" x2="160.987" y2="51.803"/>
  <path class="cls-24" d="M60.327,25.075c-1.953,0-3.537-1.584-3.537-3.537,0-1.953,1.584-3.537,3.537-3.537h33.651c1.953,0,3.537,1.584,3.537,3.537s-1.584,3.537-3.537,3.537h-33.651Z"/>
  <path class="cls-24" d="M62.649,34.695c-1.953,0-3.537-1.584-3.537-3.537,0-1.953,1.584-3.537,3.537-3.537h31.203c1.953,0,3.537,1.584,3.537,3.537,0,1.953-1.584,3.537-3.537,3.537h-31.203Z"/>
  <text class="cls-13" transform="translate(60.134 22.493)"><tspan x="0" y="0">Passive footprinting</tspan></text>
  <text class="cls-13" transform="translate(62.058 32.159)"><tspan x="0" y="0">Active footprinting</tspan></text>
  <path class="cls-2" d="M97.515,30.965c1.953,0,3.537-1.584,3.537-3.537"/>
  <path class="cls-2" d="M101.052,27.428v-2.546c0-1.953-1.584-3.537-3.537-3.537"/>
  <path class="cls-24" d="M44.123,91.449c-1.953,0-3.537-1.584-3.537-3.537,0-1.953,1.584-3.537,3.537-3.537h41.844c1.953,0,3.537,1.584,3.537,3.537s-1.584,3.537-3.537,3.537h-41.844Z"/>
  <path class="cls-24" d="M43.287,101.523c-1.953,0-3.537-1.584-3.537-3.537,0-1.953,1.584-3.537,3.537-3.537h42.564c1.953,0,3.537,1.584,3.537,3.537,0,1.953-1.584,3.537-3.537,3.537h-42.564Z"/>
  <text class="cls-13" transform="translate(43.93 88.867)"><tspan x="0" y="0">Reduction of focus area</tspan></text>
  <path class="cls-24" d="M26.7,81.375c-1.953,0-3.537-1.584-3.537-3.537,0-1.953,1.584-3.537,3.537-3.537h59.184c1.953,0,3.537,1.584,3.537,3.537s-1.584,3.537-3.537,3.537H26.7Z"/>
  <text class="cls-13" transform="translate(26.507 78.793)"><tspan x="0" y="0">Knowledge of the security posture</tspan></text>
  <text class="cls-13" transform="translate(42.696 98.987)"><tspan x="0" y="0">Identifying vulnerabilities</tspan></text>
  <path class="cls-24" d="M22.79,45.72c-1.953,0-3.537-1.584-3.537-3.537s1.584-3.537,3.537-3.537h46.087c1.953,0,3.537,1.584,3.537,3.537s-1.584,3.537-3.537,3.537H22.79Z"/>
  <path class="cls-24" d="M33.544,55.34c-1.953,0-3.537-1.584-3.537-3.537,0-1.953,1.584-3.537,3.537-3.537h35.434c1.953,0,3.537,1.584,3.537,3.537s-1.584,3.537-3.537,3.537h-35.434Z"/>
  <path class="cls-24" d="M36.45,64.96c-1.953,0-3.537-1.584-3.537-3.537,0-1.953,1.584-3.537,3.537-3.537h32.529c1.953,0,3.537,1.584,3.537,3.537,0,1.953-1.584,3.537-3.537,3.537h-32.529Z"/>
  <text class="cls-13" transform="translate(22.473 43.149)"><tspan x="0" y="0">Organisational information</tspan></text>
  <text class="cls-13" transform="translate(32.913 52.758)"><tspan x="0" y="0">Network information</tspan></text>
  <text class="cls-13" transform="translate(36.231 62.424)"><tspan x="0" y="0">System information</tspan></text>
  <path class="cls-2" d="M72.683,61.423c1.953,0,3.537-1.584,3.537-3.537v-4.552s0-7.614,0-7.614c0-1.953-1.584-3.537-3.537-3.537"/>
  <line class="cls-2" x1="103.22" y1="139.058" x2="109.385" y2="139.058"/>
  <path class="cls-24" d="M112.922,142.682c-1.953,0-3.537-1.584-3.537-3.537,0-1.953,1.584-3.537,3.537-3.537h32.717c1.953,0,3.537,1.584,3.537,3.537s-1.584,3.537-3.537,3.537h-32.717Z"/>
  <text class="cls-14" transform="translate(111.894 140.1)"><tspan x="0" y="0">Footprinting threats</tspan></text>
  <path class="cls-2" d="M149.32,25.962c1.953,0,3.537,1.584,3.537,3.537v141.763c0,1.953-1.584,3.537-3.537,3.537"/>
  <path class="cls-24" d="M101.662,178.337c-1.953,0-3.537-1.584-3.537-3.537,0-1.953,1.584-3.537,3.537-3.537h44.122c1.953,0,3.537,1.584,3.537,3.537s-1.584,3.537-3.537,3.537h-44.122Z"/>
  <text class="cls-14" transform="translate(101.105 175.754)"><tspan x="0" y="0">Footprinting methodology</tspan></text>
  <line class="cls-2" x1="149.32" y1="88.298" x2="152.857" y2="88.298"/>
  <line class="cls-2" x1="149.32" y1="139.145" x2="152.857" y2="139.145"/>
  <path class="cls-24" d="M63.955,118.217c-1.953,0-3.537-1.584-3.537-3.537s1.584-3.537,3.537-3.537h32.047c1.953,0,3.537,1.584,3.537,3.537s-1.584,3.537-3.537,3.537h-32.047Z"/>
  <path class="cls-24" d="M47.098,127.837c-1.953,0-3.537-1.584-3.537-3.537,0-1.953,1.584-3.537,3.537-3.537h48.904c1.953,0,3.537,1.584,3.537,3.537s-1.584,3.537-3.537,3.537h-48.904Z"/>
  <path class="cls-24" d="M61.757,137.457c-1.953,0-3.537-1.584-3.537-3.537,0-1.953,1.584-3.537,3.537-3.537h34.245c1.953,0,3.537,1.584,3.537,3.537,0,1.953-1.584,3.537-3.537,3.537h-34.245Z"/>
  <text class="cls-14" transform="translate(63.467 115.646)"><tspan x="0" y="0">Social engineering</tspan></text>
  <text class="cls-14" transform="translate(46.435 125.255)"><tspan x="0" y="0">System and network attacks</tspan></text>
  <text class="cls-14" transform="translate(61.256 134.921)"><tspan x="0" y="0">Information leakage</tspan></text>
  <path class="cls-2" d="M99.683,163.234c1.953,0,3.537-1.584,3.537-3.537v-33.866s0-7.614,0-7.614c0-1.953-1.584-3.537-3.537-3.537"/>
  <path class="cls-2" d="M103.22,125.831v2.006c0-1.953-1.584-3.537-3.537-3.537"/>
  <path class="cls-2" d="M103.22,135.438v2.006c0-1.953-1.584-3.537-3.537-3.537"/>
  <path class="cls-2" d="M99.683,153.614c1.953,0,3.537-1.584,3.537-3.537v-24.246"/>
  <path class="cls-2" d="M99.683,143.994c1.953,0,3.537-1.584,3.537-3.537"/>
  <path class="cls-24" d="M75.476,147.531c-1.953,0-3.537-1.584-3.537-3.537s1.584-3.537,3.537-3.537h20.526c1.953,0,3.537,1.584,3.537,3.537s-1.584,3.537-3.537,3.537h-20.526Z"/>
  <path class="cls-24" d="M59.426,157.151c-1.953,0-3.537-1.584-3.537-3.537,0-1.953,1.584-3.537,3.537-3.537h36.576c1.953,0,3.537,1.584,3.537,3.537s-1.584,3.537-3.537,3.537h-36.576Z"/>
  <path class="cls-24" d="M72.412,166.771c-1.953,0-3.537-1.584-3.537-3.537,0-1.953,1.584-3.537,3.537-3.537h23.59c1.953,0,3.537,1.584,3.537,3.537,0,1.953-1.584,3.537-3.537,3.537h-23.59Z"/>
  <text class="cls-14" transform="translate(74.988 144.96)"><tspan x="0" y="0">Privacy loss</tspan></text>
  <text class="cls-14" transform="translate(59.039 154.569)"><tspan x="0" y="0">Corporate espionage</tspan></text>
  <text class="cls-14" transform="translate(71.886 164.235)"><tspan x="0" y="0">Business loss</tspan></text>
  <g>
    <g>
      <path class="cls-7" d="M178.928,252.42h45.298c.526,0,.952.426.952.951v6.649c0,.525-.426.951-.952.951h-45.298"/>
      <path class="cls-7" d="M178.957,252.42h-7.196c-.525,0-.951.426-.951.951v6.649c0,.525.426.951.951.951h7.196"/>
      <line class="cls-8" x1="178.943" y1="252.88" x2="178.943" y2="260.512"/>
      <text class="cls-12" transform="translate(173.632 257.836)"><tspan x="0" y="0">3</tspan></text>
      <text class="cls-16" transform="translate(181.534 257.836)"><tspan x="0" y="0">Footprinting tools</tspan></text>
    </g>
    <path class="cls-2" d="M163.085,303.088c1.953,0,3.537-1.584,3.537-3.537v-71.4c0-1.953-1.584-3.537-3.537-3.537"/>
    <path class="cls-11" d="M146.03,228.152c-1.953,0-3.537-1.584-3.537-3.537,0-1.953,1.584-3.537,3.537-3.537h13.507c1.953,0,3.537,1.584,3.537,3.537s-1.584,3.537-3.537,3.537h-13.507Z"/>
    <path class="cls-11" d="M143.13,237.535c-1.953,0-3.537-1.584-3.537-3.537,0-1.953,1.584-3.537,3.537-3.537h16.407c1.953,0,3.537,1.584,3.537,3.537s-1.584,3.537-3.537,3.537h-16.407Z"/>
    <path class="cls-11" d="M149.306,246.87c-2.03,0-3.675-1.584-3.675-3.537,0-1.953,1.646-3.537,3.675-3.537h10.086c2.03,0,3.675,1.584,3.675,3.537s-1.646,3.537-3.675,3.537h-10.086Z"/>
    <text class="cls-13" transform="translate(146.178 225.58)"><tspan x="0" y="0">Maltego</tspan></text>
    <path class="cls-2" d="M163.085,261.681c1.953,0,3.537-1.584,3.537-3.537v-2.667c0-1.953-1.584-3.537-3.537-3.537"/>
    <line class="cls-2" x1="113.253" y1="302.548" x2="129.95" y2="302.548"/>
    <path class="cls-11" d="M140.913,265.218c-1.953,0-3.537-1.584-3.537-3.537s1.584-3.537,3.537-3.537h18.624c1.953,0,3.537,1.584,3.537,3.537s-1.584,3.537-3.537,3.537h-18.624Z"/>
    <text class="cls-13" transform="translate(140.864 262.924)"><tspan x="0" y="0">Recon-dog</tspan></text>
    <path class="cls-11" d="M132.267,255.981c-1.953,0-3.537-1.584-3.537-3.537,0-1.953,1.584-3.537,3.537-3.537h27.27c1.953,0,3.537,1.584,3.537,3.537s-1.584,3.537-3.537,3.537h-27.27Z"/>
    <text class="cls-13" transform="translate(132.023 253.709)"><tspan x="0" y="0">OSR framework</tspan></text>
    <path class="cls-11" d="M133.487,306.129c-1.953,0-3.537-1.584-3.537-3.537,0-1.953,1.584-3.537,3.537-3.537h27.027c1.953,0,3.537,1.584,3.537,3.537s-1.584,3.537-3.537,3.537h-27.027Z"/>
    <text class="cls-13" transform="translate(133.337 303.586)"><tspan x="0" y="0">Additional tools</tspan></text>
    <text class="cls-13" transform="translate(143.079 234.953)"><tspan x="0" y="0">Recon-ng</tspan></text>
    <text class="cls-13" transform="translate(149.275 244.334)"><tspan x="0" y="0">FOC</tspan><tspan class="cls-30" x="8.405" y="0">A</tspan></text>
    <line class="cls-2" x1="166.622" y1="256.53" x2="171.001" y2="256.53"/>
    <path class="cls-2" d="M163.085,281.962c1.953,0,3.537-1.584,3.537-3.537v-40.889c0-1.953-1.584-3.537-3.537-3.537"/>
    <path class="cls-2" d="M163.085,271.802c1.953,0,3.537-1.584,3.537-3.537v-21.395c0-1.953-1.584-3.537-3.537-3.537"/>
    <path class="cls-11" d="M143.13,275.342c-1.953,0-3.537-1.584-3.537-3.537,0-1.953,1.584-3.537,3.537-3.537h16.407c1.953,0,3.537,1.584,3.537,3.537s-1.584,3.537-3.537,3.537h-16.407Z"/>
    <text class="cls-13" transform="translate(143.248 272.813)"><tspan x="0" y="0">BillCipher</tspan></text>
    <path class="cls-11" d="M149.583,285.499c-1.953,0-3.537-1.584-3.537-3.537,0-1.953,1.584-3.537,3.537-3.537h9.954c1.953,0,3.537,1.584,3.537,3.537s-1.584,3.537-3.537,3.537h-9.954Z"/>
    <text class="cls-13" transform="translate(149.277 283.074)"><tspan x="0" y="0">Spyse</tspan></text>
    <path class="cls-2" d="M163.085,292.519c1.953,0,3.537-1.584,3.537-3.537v-40.889"/>
    <path class="cls-11" d="M128.73,296.056c-1.953,0-3.537-1.584-3.537-3.537,0-1.953,1.584-3.537,3.537-3.537h30.807c1.953,0,3.537,1.584,3.537,3.537s-1.584,3.537-3.537,3.537h-30.807Z"/>
    <text class="cls-13" transform="translate(128.556 293.631)"><tspan x="0" y="0">OSIN</tspan><tspan class="cls-28" x="9.735" y="0">T</tspan><tspan class="cls-19" x="12.096" y="0" xml:space="preserve"> framework</tspan></text>
    <path class="cls-11" d="M95.24,331.48c-2.006,0-3.623-1.671-3.533-3.697.085-1.931,1.826-3.377,3.759-3.377,3.254,0,7.076,0,10.33,0,1.933,0,3.674,1.446,3.759,3.377.089,2.026-1.527,3.697-3.533,3.697h-10.78Z"/>
    <path class="cls-11" d="M92.709,340.864c-2.006,0-3.623-1.671-3.533-3.697.085-1.931,1.827-3.377,3.76-3.377,3.788,0,9.07,0,12.858,0,1.933,0,3.674,1.446,3.76,3.377.089,2.026-1.527,3.697-3.533,3.697h-13.31Z"/>
    <path class="cls-11" d="M95.688,350.199c-2.03,0-3.675-1.584-3.675-3.537,0-1.953,1.646-3.537,3.675-3.537h10.193c2.03,0,3.675,1.584,3.675,3.537s-1.646,3.537-3.675,3.537h-10.193Z"/>
    <path class="cls-11" d="M86.602,368.547c-2.006,0-3.623-1.671-3.533-3.697.085-1.931,1.826-3.377,3.759-3.377,4.171,0,14.796,0,18.967,0,1.933,0,3.674,1.446,3.759,3.377.089,2.026-1.527,3.697-3.533,3.697h-19.418Z"/>
    <path class="cls-11" d="M95.291,359.31c-2.006,0-3.623-1.671-3.533-3.697.085-1.931,1.825-3.377,3.758-3.377,5.511,0,4.768,0,10.279,0,1.933,0,3.673,1.446,3.758,3.377.089,2.026-1.527,3.697-3.533,3.697h-10.729Z"/>
    <path class="cls-2" d="M109.716,375.13c1.953,0,3.537-1.584,3.537-3.537v-138.239c0-1.953-1.584-3.537-3.537-3.537"/>
    <path class="cls-2" d="M109.716,364.85c1.953,0,3.537-1.584,3.537-3.537v-108.66c0-1.953-1.584-3.537-3.537-3.537"/>
    <path class="cls-2" d="M113.253,370.807v-108.66c0-1.953-1.584-3.537-3.537-3.537"/>
    <path class="cls-2" d="M113.253,271.098c0-1.953-1.584-3.537-3.537-3.537"/>
    <path class="cls-2" d="M113.253,280.335c0-1.953-1.584-3.537-3.537-3.537"/>
    <path class="cls-2" d="M113.253,290.459c0-1.953-1.584-3.537-3.537-3.537"/>
    <path class="cls-2" d="M113.253,300.959c0-1.953-1.584-3.537-3.537-3.537"/>
    <path class="cls-2" d="M109.716,346.662c1.953,0,3.537-1.584,3.537-3.537"/>
    <path class="cls-2" d="M109.716,355.613c1.953,0,3.537-1.584,3.537-3.537"/>
    <path class="cls-2" d="M109.716,337.658c1.953,0,3.537-1.584,3.537-3.537"/>
    <path class="cls-2" d="M109.716,327.943c1.953,0,3.537-1.584,3.537-3.537"/>
    <path class="cls-2" d="M109.716,317.709c1.953,0,3.537-1.584,3.537-3.537"/>
    <path class="cls-2" d="M109.716,307.997c1.953,0,3.537-1.584,3.537-3.537"/>
    <path class="cls-11" d="M87.113,378.671c-2.006,0-3.623-1.671-3.533-3.697.085-1.931,1.827-3.377,3.76-3.377,3.788,0,14.667,0,18.455,0,1.933,0,3.674,1.446,3.76,3.377.089,2.026-1.527,3.697-3.533,3.697h-18.907Z"/>
    <path class="cls-11" d="M92.965,243.429c-2.006,0-3.623-1.671-3.533-3.697.085-1.931,1.826-3.377,3.759-3.377,3.254,0,9.35,0,12.604,0,1.933,0,3.674,1.446,3.759,3.377.089,2.026-1.527,3.697-3.533,3.697h-13.055Z"/>
    <path class="cls-11" d="M83.867,233.355c-2.006,0-3.623-1.671-3.533-3.697.085-1.931,1.826-3.377,3.759-3.377,3.254,0,18.448,0,21.702,0,1.933,0,3.674,1.446,3.759,3.377.089,2.026-1.527,3.697-3.533,3.697h-22.153Z"/>
    <path class="cls-11" d="M79.114,252.812c-2.006,0-3.623-1.671-3.533-3.697.085-1.931,1.827-3.377,3.76-3.377,3.788,0,22.666,0,26.454,0,1.933,0,3.674,1.446,3.76,3.377.089,2.026-1.527,3.697-3.533,3.697h-26.906Z"/>
    <path class="cls-11" d="M92.795,262.147c-2.03,0-3.675-1.584-3.675-3.537,0-1.953,1.646-3.537,3.675-3.537h13.086c2.03,0,3.675,1.584,3.675,3.537s-1.646,3.537-3.675,3.537h-13.086Z"/>
    <path class="cls-11" d="M91.176,280.495c-2.006,0-3.623-1.671-3.533-3.697.085-1.931,1.826-3.377,3.759-3.377,4.171,0,10.221,0,14.392,0,1.933,0,3.674,1.446,3.759,3.377.089,2.026-1.527,3.697-3.533,3.697h-14.843Z"/>
    <path class="cls-11" d="M91.227,271.258c-2.006,0-3.623-1.671-3.533-3.697.085-1.931,1.825-3.377,3.758-3.377,5.511,0,8.831,0,14.343,0,1.933,0,3.673,1.446,3.758,3.377.089,2.026-1.527,3.697-3.533,3.697h-14.792Z"/>
    <path class="cls-11" d="M94.141,321.406c-2.006,0-3.623-1.671-3.533-3.697.085-1.931,1.825-3.377,3.758-3.377,5.476,0,5.953,0,11.43,0,1.933,0,3.673,1.446,3.758,3.377.089,2.026-1.527,3.697-3.533,3.697h-11.879Z"/>
    <path class="cls-11" d="M89.106,290.619c-2.006,0-3.623-1.671-3.533-3.697.085-1.931,1.827-3.377,3.76-3.377,3.788,0,12.673,0,16.461,0,1.933,0,3.674,1.446,3.76,3.377.089,2.026-1.527,3.697-3.533,3.697h-16.914Z"/>
    <path class="cls-11" d="M91.559,300.776c-2.006,0-3.623-1.671-3.533-3.697.085-1.931,1.827-3.377,3.76-3.377h13.175c2.766,0,4.508,1.446,4.593,3.377.089,2.026-1.527,3.697-3.533,3.697h-14.46Z"/>
    <path class="cls-11" d="M87.244,311.333c-2.006,0-3.623-1.671-3.533-3.697.085-1.931,1.829-3.377,3.762-3.377,6.008,0,12.311,0,18.319,0,1.933,0,3.677,1.446,3.762,3.377.089,2.026-1.527,3.697-3.533,3.697h-18.776Z"/>
    <text class="cls-13" transform="translate(83.336 230.88)"><tspan x="0" y="0">theHarvester</tspan></text>
  </g>
  <rect class="cls-5" x="266.995" y="143.061" width="57.25" height="20.936" rx="5.045" ry="5.045"/>
  <text class="cls-17" transform="translate(281.009 149.017)"><tspan class="cls-21"><tspan x="0" y="0">CEH module 02 </tspan></tspan><tspan class="cls-23"><tspan x="-11.508" y="5.254">Footprint and reconnaissance</tspan></tspan><tspan class="cls-21"><tspan x="-1.719" y="9.983">(Block 2, </tspan><tspan class="cls-27" x="15.8" y="9.983">W</tspan><tspan x="19.448" y="9.983">eek 4) </tspan></tspan></text>
  <path class="cls-3" d="M365.425,88.292h0c-19.87,0-38.269,10.648-44.391,31.117l-7.761,24.122"/>
  <path class="cls-3" d="M365.425,256.609h0c-19.592,0-37.383-10.21-41.185-31.831l-10.968-61.335"/>
  <path class="cls-3" d="M225.24,256.609h0c19.592,0,37.383-10.21,41.185-31.831l10.968-61.335"/>
  <path class="cls-3" d="M225.24,51.684h0c19.592,0,37.383,10.21,41.185,31.831l10.968,61.335"/>
  <text class="cls-14" transform="translate(92.402 240.749)"><tspan x="0" y="0">Shodan</tspan></text>
  <text class="cls-14" transform="translate(78.46 250.191)"><tspan x="0" y="0">Google hacking</tspan></text>
  <text class="cls-14" transform="translate(92.19 259.672)"><tspan x="0" y="0">Netcraft</tspan></text>
  <text class="cls-14" transform="translate(90.639 268.623)"><tspan x="0" y="0">Sublist3r</tspan></text>
  <text class="cls-14" transform="translate(90.639 277.86)"><tspan x="0" y="0">Sherlock</tspan></text>
  <text class="cls-14" transform="translate(88.644 287.984)"><tspan x="0" y="0">BurpSuite</tspan></text>
  <text class="cls-14" transform="translate(91.016 298.484)"><tspan x="0" y="0">HT</tspan><tspan class="cls-31" x="5.308" y="0">T</tspan><tspan class="cls-20" x="7.593" y="0">rack</tspan></text>
  <text class="cls-14" transform="translate(85.992 308.858)"><tspan x="0" y="0">Archive.org</tspan></text>
  <text class="cls-14" transform="translate(93.51 318.772)"><tspan x="0" y="0">Photon</tspan></text>
  <text class="cls-14" transform="translate(94.774 329.006)"><tspan x="0" y="0">CEW</tspan><tspan class="cls-31" x="9.29" y="0">L</tspan></text>
  <text class="cls-14" transform="translate(92.188 338.389)"><tspan x="0" y="0">Exif</tspan><tspan class="cls-26" x="6.638" y="0">T</tspan><tspan class="cls-22" x="8.629" y="0">ool</tspan></text>
  <text class="cls-14" transform="translate(95.06 347.724)"><tspan x="0" y="0">Infoga</tspan></text>
  <text class="cls-14" transform="translate(95.068 356.835)"><tspan x="0" y="0">Whois</tspan></text>
  <text class="cls-14" transform="translate(86.214 365.912)"><tspan x="0" y="0">DNSRecon</tspan></text>
  <text class="cls-14" transform="translate(87.024 376.193)"><tspan class="cls-31" x="0" y="0">T</tspan><tspan x="2.285" y="0">raceroute</tspan></text>
</svg>